# xmcd CD database file generated by LOLA_Freedb v0.9beta0
# 
# Track frame offsets:
#      150
#      15293
#      33959
#      49531
#      67320
#      79733
#      93924
#      102759
#      117909
#      131998
#      142448
#      152104
#      165571
#      183862
# 
# Disc length: 2678 seconds
# 
# Revision: 0 
# Processed by: cddbd v1.5.1PL0 Copyright (c) Steve Scherf et al.
# Submitted via: LOLA_Freedb v0.9beta0
# 
DISCID=b80a740e
DTITLE=Helt Oncale Band - Road to Country
DYEAR=2002
DGENRE=
TTITLE0=Helt Oncale - Georgia on a Fast Train
TTITLE1=Helt Oncale - Long Road Winding
TTITLE2=Helt Oncale - Mexico
TTITLE3=Helt Oncale - Tecumseh Valley
TTITLE4=Helt Oncale - Is Anybody Goin to San Antone
TTITLE5=Helt Oncale - Black Rose
TTITLE6=Helt Oncale - Opelousas Sostan
TTITLE7=Helt Oncale - Straight Down
TTITLE8=Helt Oncale - Rocky Top
TTITLE9=Helt Oncale - That Buckin Song
TTITLE10=Helt Oncale - Dance With Me
TTITLE11=Helt Oncale - Other Woman
TTITLE12=Helt Oncale - Terrebonne Bay
TTITLE13=Take The Train
EXTD=
EXTT0=
EXTT1=
EXTT2=
EXTT3=
EXTT4=
EXTT5=
EXTT6=
EXTT7=
EXTT8=
EXTT9=
EXTT10=
EXTT11=
EXTT12=
EXTT13=
PLAYORDER=
